<?xml version="1.0" encoding="UTF-8"?>
<svg width="60" height="60" viewBox="0 0 60 60" fill="none" xmlns="http://www.w3.org/2000/svg">
  <!-- Eve Appeal Heart Symbol - 60px variant for chat launcher -->
  <path d="M30 52.5c-1.2 0-2.3-.5-3.1-1.3C20.4 45.8 7.5 34.2 7.5 22.5c0-8.3 6.7-15 15-15 3.9 0 7.5 1.5 10.2 4.2.7.7.7 1.8 0 2.5-.7.7-1.8.7-2.5 0C28.4 12.4 26 11.25 22.5 11.25c-6.2 0-11.25 5.05-11.25 11.25 0 9.8 10.8 19.7 18.75 26.1 7.95-6.4 18.75-16.3 18.75-26.1 0-6.2-5.05-11.25-11.25-11.25-3.5 0-5.9 1.15-7.7 2.95-.7.7-1.8.7-2.5 0-.7-.7-.7-1.8 0-2.5C29.0 8.5 32.6 7.5 37.5 7.5c8.3 0 15 6.7 15 15 0 11.7-12.9 23.3-19.4 28.7-.8.8-1.9 1.3-3.1 1.3z" fill="currentColor"/>
  
  <!-- Optional decorative element for visual appeal -->
  <circle cx="30" cy="15" r="2" fill="currentColor" opacity="0.6"/>
</svg>