<?xml version="1.0" encoding="UTF-8"?>
<svg width="30" height="30" viewBox="0 0 30 30" fill="none" xmlns="http://www.w3.org/2000/svg">
  <!-- Eve Appeal Heart Symbol - 30px variant for header and small elements -->
  <path d="M15 26.25c-.6 0-1.15-.25-1.55-.65C10.2 22.9 3.75 17.1 3.75 11.25c0-4.15 3.35-7.5 7.5-7.5 1.95 0 3.75.75 5.1 2.1.35.35.35.9 0 1.25-.35.35-.9.35-1.25 0C14.2 6.2 12.5 5.625 11.25 5.625c-3.1 0-5.625 2.525-5.625 5.625 0 4.9 5.4 9.85 9.375 13.05 3.975-3.2 9.375-8.15 9.375-13.05 0-3.1-2.525-5.625-5.625-5.625-1.75 0-2.95.575-3.85 1.475-.35.35-.9.35-1.25 0-.35-.35-.35-.9 0-1.25C14.5 4.25 16.3 3.75 18.75 3.75c4.15 0 7.5 3.35 7.5 7.5 0 5.85-6.45 11.65-9.7 14.35-.4.4-.95.65-1.55.65z" fill="currentColor"/>
</svg>